Coordinates
version=1
nRows=17
nColumns=40
inDegrees=yes

Units are S.I. units (second, meters, Newtons, ...)
Angles are in degrees.

endheader
time	pelvis_tilt	pelvis_list	pelvis_rotation	pelvis_tx	pelvis_ty	pelvis_tz	hip_flexion_r	hip_adduction_r	hip_rotation_r	knee_angle_r	knee_angle_r_beta	ankle_angle_r	subtalar_angle_r	mtp_angle_r	hip_flexion_l	hip_adduction_l	hip_rotation_l	knee_angle_l	knee_angle_l_beta	ankle_angle_l	subtalar_angle_l	mtp_angle_l	lumbar_extension	lumbar_bending	lumbar_rotation	arm_flex_r	arm_add_r	arm_rot_r	elbow_flex_r	pro_sup_r	wrist_flex_r	wrist_dev_r	arm_flex_l	arm_add_l	arm_rot_l	elbow_flex_l	pro_sup_l	wrist_flex_l	wrist_dev_l
      7.96750000	     -5.22510572	     -6.36125525	     12.45737394	      1.01886703	      0.91987450	      0.42755398	      2.09915012	      2.46177527	    -15.36626070	     15.73907750	     15.73907750	     17.20665159	     -2.04451672	     -1.81809811	     28.79601622	     -4.27846697	      7.84706532	     26.78612846	     26.78612846	      7.89971922	     -7.99666219	      2.87944944	     -8.01813354	      3.93867073	      4.69379143	     67.07402751	    -18.13583969	     -2.59196737	     85.74581254	     44.20321838	      0.00000000	      0.00000000	    -11.97395445	    -13.99183921	     21.95290191	     34.74641946	     43.12254906	      0.00000000	      0.00000000
      7.98942857	     -5.33490626	     -6.42895133	     11.87433229	      1.01997141	      0.92058098	      0.42382478	      1.97653979	      2.20313657	    -15.07873759	     15.97883777	     15.97883777	     16.89466273	     -1.69366997	     -1.80853049	     28.45203549	     -4.32792475	      7.49324599	     26.91601055	     26.91601055	      8.31281891	     -8.31065529	      2.84577772	     -8.09195789	      4.07616302	      4.68230494	     65.75381052	    -17.67062455	     -2.37303490	     85.07400868	     44.21696505	      0.00000000	      0.00000000	    -10.86187776	    -14.26818279	     21.76254320	     35.07098065	     43.17018813	      0.00000000	      0.00000000
      8.01135714	     -5.54309073	     -6.36096676	     11.23986234	      1.02089627	      0.92129277	      0.42003868	      2.12080184	      1.65840882	    -15.03314925	     16.57966053	     16.57966053	     16.68564717	     -0.95405215	     -2.05480756	     28.05708842	     -4.25820826	      6.96336995	     26.83215460	     26.83215460	      8.78219381	     -8.42795525	      3.12778050	     -7.94702772	      3.98099393	      4.86462828	     64.14392396	    -17.55295747	     -2.73087765	     82.84681405	     44.31500096	      0.00000000	      0.00000000	     -9.65618344	    -14.50638001	     21.27771931	     35.37929573	     43.29170954	      0.00000000	      0.00000000
      8.03328571	     -5.69082266	     -6.34143680	     10.60840657	      1.02172250	      0.92211357	      0.41633723	      2.26910386	      1.19606490	    -14.82162460	     17.22973522	     17.22973522	     16.40314725	     -0.50315556	     -2.27499504	     27.59035029	     -4.25711140	      6.42436312	     26.68557327	     26.68557327	      9.21065886	     -8.50373706	      3.26370295	     -7.89896984	      3.98174924	      4.76137893	     62.17516549	    -17.13592323	     -2.85674497	     81.17897858	     44.38114266	      0.00000000	      0.00000000	     -8.44341466	    -14.67736610	     20.85149269	     35.51722927	     43.39691266	      0.00000000	      0.00000000
      8.05521429	     -5.80660724	     -6.31230199	      9.94927809	      1.02245104	      0.92301595	      0.41263650	      2.52838421	      0.68997382	    -14.56090182	     18.11700203	     18.11700203	     16.10285748	     -0.13821465	     -2.61017435	     27.04998204	     -4.25947124	      5.83896541	     26.46933719	     26.46933719	      9.59773359	     -8.55384238	      3.33220789	     -7.87278536	      4.00220780	      4.66100323	     59.87451543	    -16.81447341	     -3.01457119	     79.42412110	     44.44779480	      0.00000000	      0.00000000	     -7.10712460	    -14.77362421	     20.42119669	     35.56918950	     43.50006990	      0.00000000	      0.00000000
      8.07714286	     -5.90251876	     -6.26341797	      9.29206206	      1.02309939	      0.92398282	      0.40894418	      2.91440064	      0.13107426	    -14.27032743	     19.24748469	     19.24748469	     15.76022669	      0.10171347	     -3.05389808	     26.44900710	     -4.24087195	      5.21762277	     26.17025069	     26.17025069	      9.96206471	     -8.59305811	      3.34652957	     -7.85308654	      3.99294281	      4.52724286	     57.19544202	    -16.53455555	     -3.12583682	     77.63197288	     44.50934917	      0.00000000	      0.00000000	     -5.70899817	    -14.83574857	     20.03954373	     35.57003662	     43.59049460	      0.00000000	      0.00000000
      8.09907143	     -6.00389748	     -6.19496207	      8.59975827	      1.02356464	      0.92487363	      0.40522925	      3.59293381	     -0.53962828	    -13.93407358	     20.87196058	     20.87196058	     15.34713712	      0.26715032	     -3.86613499	     25.84225577	     -4.18826760	      4.61615578	     25.83652563	     25.83652563	     10.29599675	     -8.62974802	      3.35086259	     -7.85581169	      4.00852055	      4.52446676	     54.35518245	    -16.27216120	     -3.38441157	     75.39032961	     44.59189405	      0.00000000	      0.00000000	     -4.00313523	    -14.77822162	     19.59647526	     35.37271339	     43.69816802	      0.00000000	      0.00000000
      8.12100000	     -6.00934634	     -6.16856943	      7.94260220	      1.02405392	      0.92579078	      0.40143463	      4.23087269	     -1.16149275	    -13.59182002	     22.50805842	     22.50805842	     14.22953147	      0.14210589	     -6.40128215	     25.19032771	     -4.13565703	      4.12848455	     25.58145991	     25.58145991	     10.61466807	     -8.91508400	      3.40097824	     -7.80786532	      4.13671916	      4.32912180	     51.59615052	    -15.50761295	     -4.37577602	     71.73986552	     44.77221859	      0.00000000	      0.00000000	     -1.80551718	    -14.19120999	     18.61450595	     33.43794549	     43.95420641	      0.00000000	      0.00000000
      8.14292857	     -5.66377862	     -6.40009336	      7.36847669	      1.02478442	      0.92713750	      0.39769422	      4.58254123	     -1.42609883	    -13.18396901	     24.27391458	     24.27391458	     13.62772955	      0.08918125	     -6.82225028	     24.25163663	     -4.38211716	      3.80230527	     25.41574729	     25.41574729	     11.01094080	     -9.05363578	      3.34845412	     -8.27401004	      4.68421257	      3.79876196	     48.15685495	    -14.81068993	     -3.98556774	     70.43375792	     44.78905394	      0.00000000	      0.00000000	     -0.34586211	    -14.22607780	     18.45257184	     33.83723703	     44.00155699	      0.00000000	      0.00000000
      8.16485714	     -5.92845991	     -5.97549627	      6.55633513	      1.02484741	      0.92723105	      0.39394762	      6.36476057	     -2.62619971	    -12.16357773	     27.39362810	     27.39362810	     11.63196288	     -1.46987720	    -11.82800669	     23.81769859	     -3.88635019	      3.07740497	     25.12890682	     25.12890682	     11.24420765	     -9.44850097	      3.38725731	     -7.96680243	      4.26864433	      4.08866475	     45.04433276	    -14.84434295	     -4.71790508	     65.42513387	     45.00542343	      0.00000000	      0.00000000	      2.30219686	    -13.60889465	     17.74849049	     31.90484356	     44.23349657	      0.00000000	      0.00000000
      8.18678571	     -5.86963218	     -5.85985437	      5.85193645	      1.02511035	      0.92740172	      0.39023162	      7.97720073	     -3.46647567	    -11.31250195	     30.85857507	     30.85857507	     10.68201198	     -2.18192520	    -13.11733896	     23.29899719	     -3.72730351	      2.53272059	     25.21724944	     25.21724944	     11.63178565	     -9.73544939	      3.27808667	     -8.12669783	      4.36109673	      3.98328317	     41.24644951	    -14.70769016	     -4.47874376	     63.14724611	     45.06241367	      0.00000000	      0.00000000	      4.08943142	    -13.56676606	     17.50940252	     32.42256269	     44.30748766	      0.00000000	      0.00000000
      8.20871429	     -5.68823652	     -5.81698906	      5.16895995	      1.02537079	      0.92740903	      0.38657668	      9.51628527	     -4.05281755	    -10.09190957	     34.16132936	     34.16132936	      8.22195103	     -4.31357258	    -17.57853016	     22.77162090	     -3.58284612	      2.25938786	     25.49494503	     25.49494503	     12.10359813	    -10.42369736	      3.42717679	     -8.27032414	      4.58982522	      3.86214600	     38.21783538	    -14.21205249	     -4.74995017	     57.79687934	     45.26586418	      0.00000000	      0.00000000	      6.54389293	    -13.09345040	     17.47829129	     31.19046128	     44.42698253	      0.00000000	      0.00000000
      8.23064286	     -5.38823326	     -5.61424257	      4.51734633	      1.02567153	      0.92696855	      0.38289707	     11.31075466	     -4.90104255	     -9.00141022	     38.29806275	     38.29806275	      6.97044552	     -5.20897945	    -18.33312599	     22.28706072	     -3.30238325	      1.79719556	     26.11066478	     26.11066478	     12.60384713	    -10.94710709	      3.22112701	     -8.70081796	      4.65245110	      3.58140925	     34.22699915	    -13.91591534	     -4.48187508	     55.45614294	     45.31954811	      0.00000000	      0.00000000	      8.40101477	    -13.15660709	     17.30203544	     31.85559963	     44.48682999	      0.00000000	      0.00000000
      8.25257143	     -5.20974931	     -5.64741110	      3.81537659	      1.02581201	      0.92595846	      0.37954813	     13.36907816	     -5.23418928	     -7.45765267	     42.37175736	     42.37175736	      4.89891905	     -7.24793221	    -20.06907583	     22.06266576	     -3.20272677	      1.65627215	     26.89675856	     26.89675856	     13.30440960	    -11.82714944	      3.57685686	     -8.79057020	      5.01925182	      3.64085974	     31.37466541	    -13.55695780	     -4.85941472	     49.01404259	     45.56321454	      0.00000000	      0.00000000	     10.79954994	    -12.78769881	     17.62148881	     31.22126523	     44.54304122	      0.00000000	      0.00000000
      8.27450000	     -4.92402909	     -5.54287745	      3.15121435	      1.02603961	      0.92452391	      0.37624079	     15.44120943	     -5.70134357	     -6.04449195	     46.66798540	     46.66798540	      3.42795313	     -8.34655480	    -19.98615585	     21.83736373	     -2.97905732	      1.39954282	     27.90181807	     27.90181807	     13.91872380	    -12.64788888	      3.40855331	     -9.14263648	      5.25834247	      3.63805662	     27.40033737	    -13.50247730	     -4.74640969	     46.06019392	     45.64551904	      0.00000000	      0.00000000	     12.76325654	    -12.71545951	     17.47020020	     32.06497915	     44.60496288	      0.00000000	      0.00000000
      8.29642857	     -4.56850524	     -5.51389663	      2.51731596	      1.02631287	      0.92282410	      0.37318506	     17.41364974	     -5.89800768	     -4.55826864	     50.74748133	     50.74748133	      2.06720811	     -9.43363525	    -19.16213366	     21.65188313	     -2.82416589	      1.23019078	     29.10167648	     29.10167648	     14.60798164	    -13.57241987	      3.35651171	     -9.50392589	      5.57403504	      3.74577764	     23.56252785	    -13.49367120	     -4.73194122	     42.35815538	     45.76261937	      0.00000000	      0.00000000	     14.85955559	    -12.58161779	     17.37593781	     32.79443216	     44.66205302	      0.00000000	      0.00000000
      8.31835714	     -4.09686160	     -5.49739316	      1.90951572	      1.02669959	      0.92108517	      0.37032154	     19.24668824	     -6.01639737	     -3.21832453	     54.73302711	     54.73302711	      2.21303272	     -9.13309917	    -14.41464497	     21.42299644	     -2.68447495	      1.08140656	     30.50398111	     30.50398111	     15.91678455	    -14.16897672	      4.48135904	     -9.87658785	      5.94318274	      3.25253971	     21.55738303	    -12.61499688	     -6.09188139	     34.68672546	     46.12344076	      0.00000000	      0.00000000	     16.94170408	    -12.66718355	     17.64052382	     32.64383910	     44.72648449	      0.00000000	      0.00000000
